HIERARCHY
ROOT SpineBase
{
  OFFSET 0.000000 0.000000 0.000000
  CHANNELS 6 Xposition Yposition Zposition Zrotation Xrotation Yrotation
  JOINT SpineMid
  {
    OFFSET 0.000000 25.514097 0.000000
    CHANNELS 3 Zrotation Xrotation Yrotation
    JOINT SpineShoulder
    {
      OFFSET -0.151925 19.051881 -0.637315
      CHANNELS 3 Zrotation Xrotation Yrotation
      JOINT Neck
      {
        OFFSET -0.067079 6.346360 -0.490781
        CHANNELS 3 Zrotation Xrotation Yrotation
        JOINT Head
        {
          OFFSET -2.747939 11.617925 0.699760
          CHANNELS 3 Zrotation Xrotation Yrotation
          End Site
          {
            OFFSET 0 0 0
          }
        }
      }
      JOINT ShoulderLeft
      {
        OFFSET -12.819925 -2.842684 4.547237
        CHANNELS 3 Zrotation Xrotation Yrotation
        JOINT ElbowLeft
        {
          OFFSET -1.191944 -21.881010 1.111274
          CHANNELS 3 Zrotation Xrotation Yrotation
          JOINT WristLeft
          {
            OFFSET -1.014949 -19.849096 -4.788137
            CHANNELS 3 Zrotation Xrotation Yrotation
            JOINT HandLeft
            {
              OFFSET 0.211755 -5.143112 -2.271321
              CHANNELS 3 Zrotation Xrotation Yrotation
              JOINT HandTipLeft
              {
                OFFSET -0.839810 -6.143770 -2.844388
                CHANNELS 3 Zrotation Xrotation Yrotation
                End Site
                {
                  OFFSET 0 0 0
                }
              }
              JOINT ThumbLeft
              {
                OFFSET -3.036773 -1.265953 -2.635401
                CHANNELS 3 Zrotation Xrotation Yrotation
                End Site
                {
                  OFFSET 0 0 0
                }
              }
            }
          }
        }
      }
      JOINT ShoulderRight
      {
        OFFSET 11.776927 -1.458285 -5.850914
        CHANNELS 3 Zrotation Xrotation Yrotation
        JOINT ElbowRight
        {
          OFFSET 5.170858 -21.189514 -1.518090
          CHANNELS 3 Zrotation Xrotation Yrotation
          JOINT WristRight
          {
            OFFSET -2.301720 -19.463986 -7.454837
            CHANNELS 3 Zrotation Xrotation Yrotation
            JOINT HandRight
            {
              OFFSET -1.699819 -7.055242 -1.498997
              CHANNELS 3 Zrotation Xrotation Yrotation
              JOINT HandTipRight
              {
                OFFSET -1.398001 -5.757839 -2.733756
                CHANNELS 3 Zrotation Xrotation Yrotation
                End Site
                {
                  OFFSET 0 0 0
                }
              }
              JOINT ThumbRight
              {
                OFFSET 1.788577 -2.162720 -2.728578
                CHANNELS 3 Zrotation Xrotation Yrotation
                End Site
                {
                  OFFSET 0 0 0
                }
              }
            }
          }
        }
      }
    }
  }
  JOINT HipLeft
  {
    OFFSET -5.634136 0.453412 -1.218216
    CHANNELS 3 Zrotation Xrotation Yrotation
    JOINT KneeLeft
    {
      OFFSET 4.808055 -35.286696 2.092064
      CHANNELS 3 Zrotation Xrotation Yrotation
      JOINT AnkleLeft
      {
        OFFSET 5.883406 -32.652308 4.249778
        CHANNELS 3 Zrotation Xrotation Yrotation
        JOINT FootLeft
        {
          OFFSET 0.518499 -6.525808 -5.698736
          CHANNELS 3 Zrotation Xrotation Yrotation
          End Site
          {
            OFFSET 0 0 0
          }
        }
      }
    }
  }
  JOINT HipRight
  {
    OFFSET 5.233503 1.248107 -4.695463
    CHANNELS 3 Zrotation Xrotation Yrotation
    JOINT KneeRight
    {
      OFFSET 6.701583 -31.640173 -2.245752
      CHANNELS 3 Zrotation Xrotation Yrotation
      JOINT AnkleRight
      {
        OFFSET 3.284518 -34.690522 4.708448
        CHANNELS 3 Zrotation Xrotation Yrotation
        JOINT FootRight
        {
          OFFSET -4.486536 -5.160290 -1.503073
          CHANNELS 3 Zrotation Xrotation Yrotation
          End Site
          {
            OFFSET 0 0 0
          }
        }
      }
    }
  }
}
MOTION
Frames: 16
Frame Time: 0.033333
24.158867 75.172949 366.957589 -0.000000 0.000000 17.742774 0.000000 0.000000 -17.742774 -0.000000 0.000000 0.000000 -0.000000 0.000000 0.000000 0.000000 0.000000 0.000000 -0.000000 0.000000 0.000000 -0.000000 0.000000 0.000000 -0.000000 0.000000 0.000000 -0.000000 0.000000 0.000000 0.000000 0.000000 0.000000 0.000000 0.000000 0.000000 -0.000000 0.000000 0.000000 -0.000000 0.000000 0.000000 -0.000000 0.000000 0.000000 -0.000000 0.000000 0.000000 0.000000 0.000000 0.000000 0.000000 0.000000 0.000000 0.000000 0.000000 -17.742774 -0.000000 0.000000 0.000000 -0.000000 0.000000 0.000000 0.000000 0.000000 0.000000 0.000000 0.000000 -17.742774 -0.000000 0.000000 0.000000 -0.000000 0.000000 0.000000 0.000000 0.000000 0.000000
24.072741 75.142079 366.966968 -0.087072 0.013349 17.777145 0.078838 -0.039296 -17.777108 -0.000000 0.000000 0.000000 -0.000000 0.000000 0.000000 0.000000 0.000000 0.000000 -0.000000 0.000000 0.000000 -0.000000 0.000000 0.000000 -1.120940 -2.192829 0.386724 0.118365 2.370305 0.057011 0.000000 0.000000 0.000000 0.000000 0.000000 0.000000 -0.000000 0.000000 0.000000 1.250890 -0.526376 -0.412381 -1.254698 0.517234 0.423791 1.561533 -1.457674 -0.371104 0.000000 0.000000 0.000000 0.000000 0.000000 0.000000 0.078838 -0.039296 -17.777108 -0.000000 0.000000 0.000000 -5.310796 8.360201 5.367907 0.000000 0.000000 0.000000 0.078838 -0.039296 -17.777108 -0.000000 0.000000 0.000000 3.460623 -8.223095 6.711764 0.000000 0.000000 0.000000
24.009074 75.114382 366.963135 -0.152135 0.043912 17.785538 0.131451 -0.088283 -17.785379 -0.000000 0.000000 0.000000 -0.000000 0.000000 0.000000 0.000000 0.000000 0.000000 -0.000000 0.000000 0.000000 -0.000000 0.000000 0.000000 -2.090788 -4.168520 0.687194 0.266128 4.314948 0.144025 0.000000 0.000000 0.000000 0.000000 0.000000 0.000000 -0.896036 0.522729 0.196156 3.214741 -1.525982 -0.923237 -1.227485 0.870183 0.568525 2.038621 -2.671041 -0.545171 0.000000 0.000000 0.000000 0.000000 0.000000 0.000000 0.131451 -0.088283 -17.785379 -0.000000 0.000000 0.000000 -10.131832 14.749072 10.247648 0.000000 0.000000 0.000000 0.131451 -0.088283 -17.785379 -0.000000 0.000000 0.000000 6.204252 -12.680537 10.778603 0.000000 0.000000 0.000000
23.967868 75.089858 366.946088 -0.195251 0.091659 17.767792 0.157967 -0.146869 -17.767433 -0.000000 0.000000 0.000000 -0.000000 0.000000 0.000000 0.000000 0.000000 0.000000 -0.000000 0.000000 0.000000 -0.833613 0.635100 0.172943 -2.117374 -6.576627 0.720942 0.468504 5.846407 0.229349 0.000000 0.000000 0.000000 0.000000 0.000000 0.000000 -1.144443 0.658537 0.249781 4.367517 -2.077472 -1.239606 -1.605937 1.098947 0.798350 3.077410 -3.666891 -0.875834 0.000000 0.000000 0.000000 0.000000 0.000000 0.000000 0.176641 0.949254 -17.643216 0.314462 -1.050218 -0.121466 -14.144537 19.415168 14.320893 0.000000 0.000000 0.000000 0.157967 -0.146869 -17.767433 -0.000000 0.000000 0.000000 7.757178 -14.192078 12.228820 0.000000 0.000000 0.000000
23.949122 75.068508 366.915828 -0.216467 0.156570 17.723817 0.158529 -0.215036 -17.723223 -0.000000 0.000000 0.000000 -0.000000 0.000000 0.000000 0.000000 0.000000 0.000000 -0.000000 0.000000 0.000000 -1.058408 0.799079 0.221367 -2.628499 -8.340246 0.833134 0.748998 6.978373 0.284808 0.000000 0.000000 0.000000 0.000000 0.000000 0.000000 -1.263093 0.713371 0.273057 5.237548 -2.489731 -1.477438 -1.844876 1.195565 0.998162 4.104145 -4.404537 -1.259708 0.000000 0.000000 0.000000 0.000000 0.000000 0.000000 0.123883 1.127279 -17.576168 1.089585 -1.998405 -0.169462 -17.998492 23.457885 17.759941 0.000000 0.000000 0.000000 0.158529 -0.215036 -17.723223 -0.000000 0.000000 0.000000 8.054636 -13.186103 11.121284 0.000000 0.000000 0.000000
23.952836 75.050332 366.872355 -0.215825 0.238631 17.653599 0.133295 -0.292844 -17.652809 -0.000000 0.000000 0.000000 -0.139357 0.829930 0.205675 0.000000 0.000000 0.000000 -0.000000 0.000000 0.000000 -1.255289 0.938328 0.264449 -3.065020 -9.920876 0.903914 1.127734 7.725670 0.286896 0.000000 0.000000 0.000000 0.000000 0.000000 0.000000 -1.252884 0.687922 0.265756 5.834971 -2.763870 -1.645924 -1.955371 1.163890 1.172091 5.100566 -4.867051 -1.707533 0.000000 0.000000 0.000000 0.000000 0.000000 0.000000 0.013591 1.223904 -17.493645 1.344727 -2.251324 -0.176447 -20.334343 25.982756 20.074959 0.000000 0.000000 0.000000 0.133295 -0.292844 -17.652809 0.057951 -0.905104 -0.077288 7.174861 -8.638972 7.353175 0.000000 0.000000 0.000000
23.975592 75.039978 366.804285 -0.194657 0.340067 17.586607 0.082811 -0.382986 -17.585753 -0.000000 0.000000 0.000000 -0.103482 0.911691 0.222640 0.000000 0.000000 0.000000 -0.000000 0.000000 0.000000 -1.364846 1.164105 0.282727 -3.785839 -10.701699 1.120278 1.391364 6.865093 0.386256 0.000000 0.000000 0.000000 0.000000 0.000000 0.000000 -1.041997 0.637117 0.236355 6.227694 -3.033305 -1.789954 -2.349889 1.905103 1.205482 6.743239 -6.370030 -1.984745 0.000000 0.000000 0.000000 0.000000 0.000000 0.000000 -0.302037 1.534790 -17.404351 1.991114 -2.715281 -0.165677 -20.266304 29.236040 20.026977 0.000000 0.000000 0.000000 0.082811 -0.382986 -17.585753 -0.588965 -1.271563 -0.206661 5.955194 -2.165742 1.756994 0.000000 0.000000 0.000000
24.035204 75.034311 366.722771 -0.134374 0.468128 17.484590 -0.012482 -0.486872 -17.484094 -0.000000 0.000000 0.000000 -0.041054 0.938759 0.224763 0.000000 0.000000 0.000000 -0.000000 0.000000 0.000000 -1.487242 1.264670 0.309499 -4.402103 -12.439692 1.191339 2.680233 7.714151 -0.157468 0.000000 0.000000 0.000000 0.000000 0.000000 0.000000 -0.720773 0.438049 0.161495 6.280867 -3.072951 -1.833921 -2.322640 1.416282 1.427612 7.785935 -6.546081 -2.548337 0.000000 0.000000 0.000000 0.000000 0.000000 0.000000 -0.446295 1.389060 -17.312222 2.069356 -2.734516 -0.162021 -22.125739 31.609846 21.958086 0.000000 0.000000 0.000000 -0.012482 -0.486872 -17.484094 -1.460624 -1.835549 -0.395079 5.558785 9.205253 -7.732343 0.000000 0.000000 0.000000
24.125779 75.019385 366.652099 -0.044993 0.600196 17.205725 -0.134564 -0.586645 -17.206178 -0.400632 0.713118 -0.020962 0.449669 0.232031 0.246574 0.000000 0.000000 0.000000 0.400924 -0.712954 0.025950 -1.661401 1.192749 0.355947 -4.528232 -13.835937 1.107984 3.155916 7.352545 -0.168429 0.000000 0.000000 0.000000 0.000000 0.000000 0.000000 0.400924 -0.712954 0.025950 5.704713 -2.770872 -1.747279 -1.917149 -0.227377 1.841199 8.470041 -3.469998 -4.255916 0.000000 0.000000 0.000000 0.000000 0.000000 0.000000 -0.850130 1.061036 -17.086763 2.357608 -2.412528 -0.096855 -20.339508 29.515054 19.988084 0.000000 0.000000 0.000000 -0.538822 -1.316824 -17.374018 -1.941792 -1.453524 -0.353068 6.367536 21.894873 -18.424688 0.000000 0.000000 0.000000
24.220794 75.003823 366.572875 0.052040 0.745932 17.051164 -0.268494 -0.697881 -17.053138 -0.360662 0.864664 -0.016040 0.486686 0.036957 0.227869 0.000000 0.000000 0.000000 0.360945 -0.864546 0.021485 -1.838520 1.125142 0.402772 -4.124823 -14.385155 0.931347 3.096824 5.742607 0.108319 0.000000 0.000000 0.000000 0.000000 0.000000 0.000000 0.360945 -0.864546 0.021485 5.540291 -2.800771 -1.682062 -1.232745 -0.210522 1.655392 9.170190 -3.740239 -4.653774 0.000000 0.000000 0.000000 0.000000 0.000000 0.000000 -1.143834 0.582689 -16.993946 2.407678 -1.997979 -0.048378 -19.386674 27.662891 18.925673 0.000000 0.000000 0.000000 -0.765986 -1.433012 -17.223867 -2.474323 -1.949520 -0.502314 7.180749 35.481373 -29.290582 0.000000 0.000000 0.000000
24.316691 74.993347 366.486567 0.126284 0.886519 16.964127 -0.408359 0.055457 -16.970822 -0.069425 0.198336 -0.013354 0.627463 -0.195784 0.200067 0.000000 0.000000 0.000000 0.350251 -1.018630 0.019419 -2.059770 1.047602 0.460748 -3.216195 -14.603867 0.627128 3.411530 5.697645 -0.100445 0.000000 0.000000 0.000000 0.000000 0.000000 0.000000 0.350251 -1.018630 0.019419 5.420251 -2.730269 -1.649525 -1.049124 -0.045297 1.534419 8.552238 -3.683532 -4.350308 0.000000 0.000000 0.000000 0.000000 0.000000 0.000000 -1.137598 -0.219042 -16.980841 1.963534 -1.162690 0.014222 -17.530793 20.784398 16.699874 0.000000 0.000000 0.000000 -0.983564 -1.543800 -17.140360 -2.928234 -2.322461 -0.633444 13.495134 41.986779 -38.942107 0.000000 0.000000 0.000000
24.400656 74.984030 366.415521 0.175663 1.005825 16.918265 -0.442078 0.075762 -16.924773 -0.076965 0.210471 -0.013096 0.346669 -1.160012 0.018042 0.000000 0.000000 0.000000 -0.372177 -1.622979 -0.010697 -1.459148 1.299990 0.522986 -2.276335 -14.510652 0.324535 2.490227 3.397295 0.720962 0.000000 0.000000 0.000000 0.000000 0.000000 0.000000 1.085498 -2.170479 -0.259761 4.540789 -1.586666 -1.401945 -0.927200 -0.477046 1.590312 9.076634 -3.857014 -4.582312 0.000000 0.000000 0.000000 0.000000 0.000000 0.000000 -1.427480 -0.291371 -16.956737 2.087254 -1.246273 -0.001331 -16.847736 16.946346 15.854003 0.000000 0.000000 0.000000 -1.169002 -1.639595 -17.097715 -3.009103 -2.465811 -0.682624 16.515933 41.402263 -40.789008 0.000000 0.000000 0.000000
24.475120 74.986468 366.341279 0.203835 1.102350 16.919402 -0.470251 0.091800 -16.926211 -0.081551 0.208493 -0.013459 0.354745 -1.261687 0.017987 0.000000 0.000000 0.000000 -0.405418 -1.925124 -0.005611 -1.370631 1.210015 0.517808 -1.720937 -13.441855 0.204550 1.534929 1.880594 1.340237 0.000000 0.000000 0.000000 0.000000 0.000000 0.000000 1.268234 -2.541532 -0.329088 4.331549 -1.232786 -1.344559 -0.579059 0.251507 1.281603 8.533637 -4.169140 -4.189183 0.000000 0.000000 0.000000 0.000000 0.000000 0.000000 -1.431129 -0.281629 -16.943574 1.811655 -1.531406 -0.082194 -17.106433 16.877488 16.399011 0.000000 0.000000 0.000000 -1.358277 -1.675418 -17.092371 -2.800352 -2.398610 -0.676590 17.321167 40.466475 -40.816813 0.000000 0.000000 0.000000
24.525574 74.991798 366.286801 0.186707 1.157158 16.931801 -0.489555 0.111003 -16.939777 -0.090074 0.202420 -0.015880 1.213123 -0.876964 0.094066 0.000000 0.000000 0.000000 -0.454814 -2.042137 -0.007747 -1.199915 0.959646 0.512893 -0.608656 -13.603630 -0.214729 0.143924 1.586115 2.277869 0.000000 0.000000 0.000000 0.000000 0.000000 0.000000 0.813836 -2.544538 -0.291611 5.173257 -1.558977 -1.483178 -0.884553 0.678842 1.321968 10.293224 -9.044716 -3.181906 0.000000 0.000000 0.000000 0.000000 0.000000 0.000000 -1.335294 -0.379722 -16.951619 1.508087 -1.561902 -0.124069 -15.285847 11.754444 14.475615 0.000000 0.000000 0.000000 -1.557031 -1.797577 -17.124617 -2.331878 -2.017101 -0.582757 17.014097 38.286666 -39.128372 0.000000 0.000000 0.000000
24.555904 74.997478 366.240312 0.160512 1.201582 16.923607 -0.489433 0.124867 -16.932131 -0.092543 0.191926 -0.017409 1.364201 -1.008781 0.073257 0.000000 0.000000 0.000000 -0.591892 -2.174456 -0.015743 -0.925777 0.608377 0.506570 0.002215 -12.998937 -0.433108 -0.099233 -0.247453 2.620309 0.000000 0.000000 0.000000 0.000000 0.000000 0.000000 0.990793 -2.773058 -0.337328 5.821830 -1.788185 -1.683305 -2.422779 2.349990 1.401637 11.364707 -10.131963 -2.918252 0.000000 0.000000 0.000000 0.000000 0.000000 0.000000 -1.776931 -0.099859 -16.952894 2.304770 -1.792521 -0.079860 -16.047123 13.347857 15.062977 0.000000 0.000000 0.000000 -1.623575 -1.840863 -17.117164 -1.751226 -1.721488 -0.479374 15.547410 33.696557 -34.513197 0.000000 0.000000 0.000000
24.546300 75.010127 366.197036 0.097785 1.213703 16.984128 -0.476354 0.114875 -16.993492 -0.095281 0.160729 -0.020094 1.469682 -0.929404 0.087514 0.000000 0.000000 0.000000 -0.705976 -2.115769 -0.025463 -0.673036 0.220208 0.505130 0.273790 -12.064380 -0.512800 -0.210069 -2.882211 2.941065 0.000000 0.000000 0.000000 0.000000 0.000000 0.000000 1.556158 -3.013156 -0.413380 5.410154 -1.396612 -1.663988 -5.365938 5.772801 1.250652 13.664352 -14.718775 -0.958568 0.000000 0.000000 0.000000 0.000000 0.000000 0.000000 -1.660258 -0.165713 -17.011153 2.228959 -1.642088 -0.060491 -17.353032 17.694925 16.627286 0.000000 0.000000 0.000000 -1.552580 -1.837294 -17.169442 -1.905757 -1.894200 -0.525062 16.344525 36.685697 -37.588983 0.000000 0.000000 0.000000
